<?xml version="1.0" encoding="UTF-8" standalone="no"?>
<svg
   xmlns:dc="http://purl.org/dc/elements/1.1/"
   xmlns:cc="http://creativecommons.org/ns#"
   xmlns:rdf="http://www.w3.org/1999/02/22-rdf-syntax-ns#"
   xmlns:svg="http://www.w3.org/2000/svg"
   xmlns="http://www.w3.org/2000/svg"
   xmlns:sodipodi="http://sodipodi.sourceforge.net/DTD/sodipodi-0.dtd"
   xmlns:inkscape="http://www.inkscape.org/namespaces/inkscape"
   inkscape:version="1.0 (4035a4f, 2020-05-01)"
   sodipodi:docname="appveyor-logo.svg"
   id="svg33"
   version="1.1"
   preserveAspectRatio="xMidYMid"
   viewBox="0 0 256 256"
   height="2500"
   width="2500">
  <metadata
     id="metadata39">
    <rdf:RDF>
      <cc:Work
         rdf:about="">
        <dc:format>image/svg+xml</dc:format>
        <dc:type
           rdf:resource="http://purl.org/dc/dcmitype/StillImage" />
      </cc:Work>
    </rdf:RDF>
  </metadata>
  <defs
     id="defs37" />
  <sodipodi:namedview
     inkscape:current-layer="svg33"
     inkscape:window-maximized="0"
     inkscape:window-y="25"
     inkscape:window-x="0"
     inkscape:cy="1250"
     inkscape:cx="595.2381"
     inkscape:zoom="0.294"
     showgrid="false"
     id="namedview35"
     inkscape:window-height="838"
     inkscape:window-width="986"
     inkscape:pageshadow="2"
     inkscape:pageopacity="0"
     guidetolerance="10"
     gridtolerance="10"
     objecttolerance="10"
     borderopacity="1"
     bordercolor="#666666"
     pagecolor="#ffffff" />
  <path
     style="fill:#c0c0c0;fill-opacity:1"
     id="path31"
     fill-rule="evenodd"
     fill="#00B3E0"
     d="M127.586 0C198.835 0 256 57.165 256 127.586A127.997 127.997 0 0 1 127.586 256C57.165 256 0 198.835 0 127.586 0 57.165 57.165 0 127.586 0zm31.482 152.44c-14.084 18.227-39.767 21.54-57.165 7.456-17.398-13.255-19.884-38.938-5.8-57.165 14.913-17.398 40.596-20.712 57.994-7.456 17.398 14.084 19.884 39.767 4.971 57.165zm-67.935 83.677l48.88-47.224c-18.227 4.143-37.282.829-52.194-11.599-17.398-13.255-24.855-35.624-22.37-56.336L21.54 169.01s-5.799-10.77-7.456-30.654l77.049-60.479c23.197-16.57 54.68-17.398 77.048 0 24.855 19.884 29.825 56.337 11.599 83.676l-56.337 80.363c-8.284 0-24.854-2.486-32.31-5.8z" />
</svg>
