<?xml version="1.0" encoding="UTF-8" standalone="no"?>
<svg width="224px" height="204px" viewBox="0 0 224 204" version="1.1" xmlns="http://www.w3.org/2000/svg" xmlns:xlink="http://www.w3.org/1999/xlink" xmlns:sketch="http://www.bohemiancoding.com/sketch/ns">
    <!-- Generator: Sketch 3.2.2 (9983) - http://www.bohemiancoding.com/sketch -->
    <title>logo</title>
    <desc>Created with Sketch.</desc>
    <defs></defs>
    <g id="Page-1" stroke="none" stroke-width="1" fill="none" fill-rule="evenodd" sketch:type="MSPage">
        <path d="M114.705781,51.8695846 L114.705781,69.0573023 L128.195687,69.0573023 L128.195687,144.942698 L114.705781,144.942698 L114.705781,162.130415 L163.645906,162.130415 L163.645906,144.942698 L147.018812,144.942698 L147.018812,129.862908 L165.528219,129.862908 C192.508031,129.862908 210.39,113.972376 210.39,89.9744305 C210.39,67.111523 193.606047,51.8695846 168.194828,51.8695846 L114.705781,51.8695846 Z M67.3516812,52.8504862 C38.8247092,52.8504862 18.42,74.0476113 18.42,101.980271 C18.42,129.714828 38.4285012,151.704369 68.3422011,151.704369 C89.7374301,151.704369 107.17058,140.016234 112.519387,122.781189 L88.1525983,122.781189 C84.5867268,128.526204 78.0492957,131.497763 69.134617,131.497763 C53.0881952,131.497763 44.3716204,122.583085 41.4000608,110.89495 L113.311803,110.89495 C114.104219,107.329079 114.104219,103.763207 114.104219,100.39544 C114.104219,72.2646755 94.6900294,52.8504862 67.3516812,52.8504862 Z M123.80378,203.857162 C185.659672,203.857162 224,173.855892 224,112 C224,50.144108 173.855892,0 112,0 C50.144108,0 0,50.144108 0,112 C0,173.855892 61.9478876,203.857162 123.80378,203.857162 Z" id="logo" fill="#F84848" sketch:type="MSShapeGroup"></path>
    </g>
</svg>